<svg height="512" viewBox="0 0 58 60" width="512" xmlns="http://www.w3.org/2000/svg"><g id="014---Eagle" fill="none"><g id="Layer_3" transform="translate(1)"><path id="Shape" d="m46.44 49.25c-1.9710079-.1272196-3.9297776-.4013137-5.86-.82-.1444476-.0301129-.2947743.0064698-.409233.0995887-.1144586.0931188-.1808611.2328583-.180767.3804113-.168563 2.2179319-.6989028 4.3933381-1.57 6.44-.085548.1669831-.2573785.2720197-.445.2720197s-.359452-.1050366-.445-.2720197c-1.0678694-1.8818688-2.3279366-3.6479736-3.76-5.27-.1313236-.1403906-.331506-.1930594-.5149172-.1354769-.1834111.0575826-.3175677.2152184-.3450828.4054769-.71 4.37-5.48 7.51-7.25 8.53-.1460089.0813-.3229819.0842788-.4716442.0079387s-.2493563-.2219047-.2683558-.3879387c-.92-7.72-3.71-10.34-4.62-11.01-.174515-.1206353-.405485-.1206353-.58 0-2.7240449 1.901198-4.6783842 4.713886-5.51 7.93-.0503974.1800836-.197073.316992-.3801973.3548798-.1831242.0378878-.3720844-.0295788-.4898027-.1748798-1.5979015-1.7339586-2.4741402-4.0121792-2.45-6.37.0123029-.1798354-.0751248-.3519049-.2276283-.448003-.1525034-.0960981-.3454549-.1007059-.5023717-.011997-3.34074267 2.1169545-6.19095223 4.9228426-8.36 8.23-.1220415.1756789-.3423203.2542629-.54799927.1954974-.20567896-.0587654-.35119209-.2418613-.36200073-.4554974-1.32-19.66 4-34.29 5.65-37.84.05441663-.1622124.02028121-.3410617-.09005402-.4718294s-.2808895-.1945136-.44994598-.1681706l-2.49.62c-.09081996.0250071-.18798644-.0031594-.25135215-.0728617s-.08217176-.1691055-.04864785-.2571383c.83289827-1.641809 1.97753325-3.105719 3.37-4.31.16803159-.1516901.21318587-.3973497.11007866-.5988775-.1031072-.2015277-.32874952-.3086402-.55007866-.2611225l-2.46.49c-.10002198.0186398-.2013627-.0251961-.25627048-.1108523-.05490778-.0856561-.05242815-.1960435.00627048-.2791477 1.84-2.43 10.5-12.48 24.57-12.48 13.65 0 16.38 8.74 16.89 11.3-1.1338215-.1610293-2.275459-.2611729-3.42-.3-.2944552-.0135048-.5798695.1035882-.78.32-.7012358.7736844-1.0331196 1.8131004-.91 2.85.063265.4915519-.243054.9552847-.72 1.09-10.06 2.97-10.06 6.74-10.06 6.74 0 2 3 2 3 2 1.9799322-.3763832 3.9858134-.6003732 6-.67-.67 13.27 6 21.66 8.8 24 .2126372.1241692.3032162.3846672.2134876.6139734-.0897285.2293063-.3330491.3591479-.5734876.3060266z" fill="#e8edfc"/><path id="Shape" d="m46.44 49.25c-1.9710079-.1272196-3.9297776-.4013137-5.86-.82-.1444476-.0301129-.2947743.0064698-.409233.0995887-.1144586.0931188-.1808611.2328583-.180767.3804113-.168563 2.2179319-.6989028 4.3933381-1.57 6.44-.085548.1669831-.2573785.2720197-.445.2720197s-.359452-.1050366-.445-.2720197c-1.0678694-1.8818688-2.3279366-3.6479736-3.76-5.27-.1313236-.1403906-.331506-.1930594-.5149172-.1354769-.1834111.0575826-.3175677.2152184-.3450828.4054769-.71 4.37-5.48 7.51-7.25 8.53-.1460089.0813-.3229819.0842788-.4716442.0079387s-.2493563-.2219047-.2683558-.3879387c-.92-7.72-3.71-10.34-4.62-11.01-.174515-.1206353-.405485-.1206353-.58 0-2.7240449 1.901198-4.6783842 4.713886-5.51 7.93-.0503974.1800836-.197073.316992-.3801973.3548798-.1831242.0378878-.3720844-.0295788-.4898027-.1748798-1.5979015-1.7339586-2.4741402-4.0121792-2.45-6.37.0123029-.1798354-.0751248-.3519049-.2276283-.448003-.1525034-.0960981-.3454549-.1007059-.5023717-.011997-3.34074267 2.1169545-6.19095223 4.9228426-8.36 8.23-.1220415.1756789-.3423203.2542629-.54799927.1954974-.20567896-.0587654-.35119209-.2418613-.36200073-.4554974-1.32-19.66 4-34.29 5.65-37.84.05441663-.1622124.02028121-.3410617-.09005402-.4718294s-.2808895-.1945136-.44994598-.1681706l-2.49.62c-.09081996.0250071-.18798644-.0031594-.25135215-.0728617s-.08217176-.1691055-.04864785-.2571383c.83289827-1.641809 1.97753325-3.105719 3.37-4.31.16803159-.1516901.21318587-.3973497.11007866-.5988775-.1031072-.2015277-.32874952-.3086402-.55007866-.2611225l-2.46.49c-.10002198.0186398-.2013627-.0251961-.25627048-.1108523-.05490778-.0856561-.05242815-.1960435.00627048-.2791477 1.84-2.43 10.5-12.48 24.57-12.48 13.65 0 16.38 8.74 16.89 11.3-1.1338215-.1610293-2.275459-.2611729-3.42-.3-.2944552-.0135048-.5798695.1035882-.78.32-.7012358.7736844-1.0331196 1.8131004-.91 2.85.063265.4915519-.243054.9552847-.72 1.09-10.06 2.97-10.06 6.74-10.06 6.74 0 2 3 2 3 2 1.9799322-.3763832 3.9858134-.6003732 6-.67-.67 13.27 6 21.66 8.8 24 .2126372.1241692.3032162.3846672.2134876.6139734-.0897285.2293063-.3330491.3591479-.5734876.3060266z" fill="#fff"/><g fill="#e8edfc"><path id="Shape" d="m41.83 12c.71 0 1.81.1 3.06.28-1.28-6.41-7.19-11.81-18.38-11.28 11.91.64 14.7 8.28 15.32 11z"/><path id="Shape" d="m46.79 48.37c-2.79-2.37-9.47-10.77-8.79-24.04-.91 0-1.91.1-3 .23-.6 13.13 6 21.44 8.79 23.81.1875448.1538275.2343196.42172.11.63.79.11 1.65.2 2.54.25.2139853.0110651.4112337-.1154467.4904218-.3145482.079188-.1991014.0227102-.426527-.1404218-.5654518z"/><path id="Shape" d="m53 29c.1202298-1.840633-.5236959-3.6494131-1.78-5-1.5-1.62-4.22-3-9.22-3-12 0-13 2-13 2s0-3.77 10.06-6.73c.476946-.1347153.783265-.5984481.72-1.09-.1231196-1.0368996.2087642-2.0763156.91-2.85.2001305-.2164118.4855448-.3335048.78-.32 3.17.1 8.3.76 10.53 3 3 2.99 5 6.99 1 13.99z"/></g><path id="Shape" d="m52 15c-2.23-2.23-7.36-2.89-10.53-3-.202845-.0024601-.4016412.05683-.57.17 2.57.27 6.28 1 8.1 2.82 2.33 2.33 4 5.27 2.82 9.74.8675858 1.2476752 1.2838204 2.75388 1.18 4.27 4-7 2-11-1-14z" fill="#cad9fc"/><path id="Shape" d="m51.22 24c-4.56 5.21-3.68-1.8-19.22 1 0 0-3 0-3-2 0 0 1-2 13-2 5 0 7.72 1.38 9.22 3z" fill="#a4c2f7"/><path id="Shape" d="m29 16c-1.5460297-.0128209-2.8291242-1.1984955-2.963731-2.7387075-.1346067-1.5402121.923363-2.930484 2.443731-3.2112925 1.28.56 1.79 1.35 3.43 2.23.2212858.895075.0186912 1.8421904-.5494014 2.5684118-.5680925.7262214-1.4385757 1.1508756-2.3605986 1.1515882z" fill="#cad9fc"/></g><g id="Layer_3_copy" fill="#fff" transform="translate(1)"><path id="Shape" d="m3.47 18.88 2.53-.62c.10638427-.0398864.22361573-.0398864.33 0 .83695186-1.5333903 1.93703826-2.9076521 3.25-4.06.16803159-.1516901.21318587-.3973497.11007866-.5988775-.1031072-.2015277-.32874952-.3086402-.55007866-.2611225l-2.4.48c.00380632.143784-.05449221.282243-.16.38-1.39246675 1.204281-2.53710173 2.668191-3.37 4.31-.04786853.0840885-.04291586.1882491.0127152.2674163.05563107.0791673.15195023.1191244.2472848.1025837z"/><path id="Shape" d="m26.51 1c-13.19.71-21.31 10.14-23.12 12.48-.05869863.0831042-.06117826.1934916-.00627048.2791477.05490778.0856562.1562485.1294921.25627048.1108523l2.46-.49c.10603117-.0417886.22396883-.0417886.33 0 1.89-2.38 9.97-11.66 23.07-12.38-.9958415-.05735578-1.9941585-.05735578-2.99 0z"/><path id="Shape" d="m.89 56.78c.02533386.2068174.17626756.3762435.37879623.4252065.20252866.048963.41419009-.0328028.53120377-.2052065.47-.69 1.14-1.62 2-2.63-.8-18.37 4.2-32.02 5.74-35.43.08247918-.1743251.05503382-.3808185-.0701171-.5275472-.12515092-.1467286-.32473016-.206402-.5098829-.1524528l-2.41.6v.08c-1.64 3.55-6.98 18.18-5.66 37.84z"/></g><path id="Shape" d="m5.88 26.76-1.88-.54c.71645075-2.6215962 1.61188577-5.1909601 2.68-7.69l1.82.83c-1.04333434 2.40314-1.91876748 4.8757374-2.62 7.4z" fill="#fff"/><g fill="#428dff"><path id="Shape" d="m4 26.22c-2.73915324 9.9648227-3.79035524 20.3179794-3.11 30.63.04254787.6413408.4889766 1.1842947 1.11 1.35.61825542.1747117 1.27834657-.0723163 1.63-.61 1.92850194-2.9423123 4.39907637-5.4909406 7.28-7.51.1976273 2.2887515 1.134833 4.4509938 2.67 6.16.3668833.4212762.9342064.6091061 1.48.49.5386177-.1188841.9664341-.5274295 1.11-1.06.7565079-2.8630511 2.4586413-5.3862965 4.83-7.16 1 .84 3.15 3.44 4 10.16.0563356.5041628.3653143.9450227.82 1.17.2071004.1067515.4370114.1616556.67.16.2597023-.0023523.5144704-.0712085.74-.2 1.92-1.12 6.28-4 7.51-8.25 1.1302798 1.3521365 2.1344661 2.8048594 3 4.34.2842149.4989062.8267926.7934484 1.4.76.5754616-.0275027 1.0826661-.3864474 1.3-.92.8267089-1.9790114 1.3622741-4.0673785 1.59-6.2 1.7953664.3603346 3.6127101.6008654 5.44.72.6438368.037904 1.2398314-.3399943 1.480142-.9385036.2403105-.5985093.071136-1.2836346-.420142-1.7014964-3.2-2.61-8.84-10.61-8.53-22.29 2.3386351-.028438 4.6630008.3679917 6.86 1.17.6803032.2869247 1.4034112.4592542 2.14.51 1.1930193-.0875188 2.3098626-.619179 3.13-1.49.6380245 1.0035243.9425284 2.1830392.87 3.37-.0835466.4905177.2062549.9678379.68 1.12.1061802.0144071.2138198.0144071.32 0 .3586848.001424.690659-.1893658.87-.5 4.58-8 1.53-12.52-1.16-15.21-1.65-1.64-4.47-2.46-7-2.88-.88-3.41-4.38-11.41-17.71-11.41-14.66 0-23.73 10.72-25.4 12.86-.32824605.4131139-.36174004.9878497-.08370332 1.4362961.27803673.4484463.80771844.6740132 1.32370332.5637039l.83-.16c-.99408089 1.0102195-1.81204976 2.1797122-2.42 3.46-.18596286.4375379-.10762467.9426899.2021221 1.303354.30974676.360664.79727322.5143955 1.2578779.396646l1.93-.48c.0953502.217183.27089737.3891476.49.48.12699349.0638045.26795842.094748.41.09.390571.0009665.74596087-.2255458.91-.58.23506098-.5237173.15060905-1.1356599-.21751635-1.5761337-.3681254-.4404737-.9553556-.6322201-1.51248365-.4938663l-.78.19c.67873592-.9009089 1.44222396-1.7347182 2.28-2.49.52235797-.4493395.67141091-1.196758.36137494-1.8120966s-.99941235-.9403177-1.67137494-.7879034l-.35.07c3.21-3.47 11.03-10.47 22.44-10.47 11 0 14.47 5.9 15.54 9.14-.8-.08-1.51-.11-2-.13-.5987658-.0199194-1.1749272.2296282-1.57.68-.8834221.9866599-1.3020396 2.3043951-1.15 3.62-10.52 3.08-10.82 7.23-10.82 7.69 0 2.37 2.62 3 4 3h.18c1.5837098-.2925291 3.1830674-.4928661 4.79-.6-.28 12.56 5.68 20.17 8.15 22.76-1.4558348-.1431895-2.9017663-.3736035-4.33-.69-.4269463-.0882493-.8711246.0149186-1.2154666.2823128-.3443421.2673941-.5542987.6721856-.5745334 1.1076872-.1284323 1.7586276-.5089906 3.4896627-1.13 5.14-.9849583-1.6030953-2.1057411-3.1186613-3.35-4.53-.369307-.4432183-.964974-.6274048-1.52-.47-.5659655.1630729-.9867768.6384339-1.08 1.22-.57 3.51-4.25 6.25-6.11 7.43-1-7.42-3.77-10.15-4.93-11-.5110735-.3549804-1.1889265-.3549804-1.7 0-2.6703085 1.8317555-4.6574414 4.497679-5.65 7.58-1.0899542-1.43662-1.6673297-3.1969109-1.64-5 .0205404-.5493309-.2590736-1.0664253-.73-1.35-.462381-.2742954-1.037619-.2742954-1.5 0-3.08076337 1.9148686-5.74657645 4.4276694-7.84 7.39-.50618217-9.6056882.52685887-19.2305247 3.06-28.51.14749051-.5299985-.16082067-1.0795967-.69-1.23-.51698593-.1226734-1.03963934.1803777-1.19.69zm36.39-9c.9498847-.273449 1.5575379-1.1998013 1.43-2.18-.0694293-.729636.1699393-1.4549957.66-2 3.57.11 8 .87 9.85 2.7 2.18 2.18 4 5.06 2.18 10-.3241555-.8200438-.787648-1.577871-1.37-2.24-.06-.06-.13-.11-.18-.17v-.05c-2.16-2.19-5.47-3.28-9.96-3.28-3.4654893-.091578-6.9310444.1799016-10.34.81 2.2997436-1.6866361 4.909535-2.9031795 7.68-3.58zm-7.46 6.78c-.3 0-1.4-.12-1.79-.63.86-.44 3.66-1.37 11.86-1.37 3.47 0 6.08.69 7.79 2-.460703.5332162-1.0944053.8872398-1.79 1-.5253045-.0658169-1.0396979-.2002988-1.53-.4-2.31-.79-6.18-2.11-14.54-.6z"/><path id="Shape" d="m6.12 23.67c.55228475 0 1-.4477153 1-1s-.44771525-1-1-1-1 .4477153-1 1 .44771525 1 1 1z"/><path id="Shape" d="m30 17c1.9010745.000388 3.5397851-1.337335 3.92-3.2.549602.1773016 1.122567.2716723 1.7.28.2341751-.0013572.4680095-.0180597.7-.05 1.003494-.1303784 1.9101862-.6650017 2.51-1.48.2440793-.4550261.101585-1.0210631-.3288453-1.306288s-1.0072424-.1958368-1.3311547.206288c-.3041548.3300877-.7148446.5425135-1.16.6-.8.13-2.21-.09-4.39-1.83-1.3440526-1.24715256-3.193658-1.79463575-5-1.48-2.87.63-4.43 3.68-4.49 3.81-.2013504.4835272.0045141 1.0404963.4719378 1.2768341s1.0380149.0719586 1.3080622-.3768341c.6240963-1.1459101 1.5932905-2.0661198 2.77-2.63-.7962144 1.2247949-.8614076 2.7862364-.1700615 4.0731398.6913462 1.2869034 2.0292642 2.09457 3.4900615 2.1068602zm-.65-5.89c.3535501.1915732.6883501.4158892 1 .67.5240194.4132662 1.0752657.7907865 1.65 1.13v.09c.0007279 1.0195244-.7655548 1.876415-1.7788262 1.9891608s-1.9491706-.5547445-2.172569-1.5494926c-.2233985-.9947481.3372165-1.9983224 1.3013952-2.3296682z"/><path id="Shape" d="m45 18c1.0252362-.1040098 1.9828228-.5598352 2.71-1.29.3921221-.3893608.3943607-1.0228778.005-1.415-.3893608-.3921221-1.0228778-.3943607-1.415-.005-.3520436.3620528-.8051101.6094968-1.3.71-.5522847 0-1 .4477153-1 1s.4477153 1 1 1z"/></g></g></svg>